<?xml version="1.0" standalone="no"?>
<!DOCTYPE svg PUBLIC "-//W3C//DTD SVG 20010904//EN"
 "http://www.w3.org/TR/2001/REC-SVG-20010904/DTD/svg10.dtd">
<svg version="1.0" xmlns="http://www.w3.org/2000/svg"
 width="512.000000pt" height="512.000000pt" viewBox="0 0 512.000000 512.000000"
 preserveAspectRatio="xMidYMid meet">

<g transform="translate(0.000000,512.000000) scale(0.100000,-0.100000)"
fill="#000000" stroke="none">
<path d="M400 3826 c-90 -24 -172 -95 -214 -185 l-21 -46 0 -1035 0 -1035 22
-47 c30 -66 96 -133 162 -165 l56 -28 2155 0 2155 0 47 22 c66 30 133 96 165
162 l28 56 0 1035 0 1035 -28 56 c-32 66 -99 132 -165 162 l-47 22 -2135 2
c-1666 1 -2145 -1 -2180 -11z m3877 -328 c77 -29 152 -104 181 -181 22 -57 22
-66 22 -757 0 -691 0 -700 -22 -757 -29 -77 -104 -152 -181 -181 l-58 -22
-1659 0 -1659 0 -58 22 c-77 29 -152 104 -181 181 -22 57 -22 66 -22 757 0
691 0 700 22 757 28 76 104 152 178 181 l55 21 1662 0 1662 1 58 -22z"/>
<path d="M3006 3274 c-113 -107 -190 -141 -350 -155 -193 -16 -300 -61 -407
-168 -146 -146 -198 -354 -139 -553 l23 -77 -103 -228 c-57 -125 -103 -240
-103 -255 0 -32 18 -57 51 -69 21 -8 73 11 311 113 l286 122 95 -2 c121 -3
196 10 276 47 88 41 157 109 200 195 118 239 10 510 -241 606 -83 32 -291 35
-375 6 -76 -27 -160 -111 -185 -186 -41 -124 -15 -242 74 -331 67 -67 120 -88
242 -96 163 -11 253 34 285 143 14 49 14 59 0 107 -28 97 -110 147 -243 147
l-63 0 0 -80 0 -79 78 -3 77 -3 0 -35 0 -35 -98 -3 c-108 -3 -151 12 -192 66
-30 40 -28 145 2 188 37 52 76 64 205 64 97 0 120 -3 163 -24 222 -103 221
-411 -3 -514 -49 -22 -62 -24 -195 -20 -134 3 -146 5 -207 34 -83 39 -155 111
-194 194 -29 60 -31 73 -31 170 0 97 2 110 31 170 39 83 111 155 191 192 49
23 86 32 170 39 212 19 328 67 455 188 l79 76 -53 52 -53 52 -59 -55z m-713
-1145 c29 -23 53 -44 55 -48 1 -4 -40 -26 -93 -48 -52 -23 -95 -37 -95 -32 0
12 71 169 77 169 2 0 27 -18 56 -41z"/>
<path d="M972 3264 c-18 -10 -45 -33 -60 -52 -39 -51 -38 -134 0 -184 73 -95
220 -81 268 25 24 53 25 81 1 133 -36 79 -135 116 -209 78z"/>
<path d="M4012 3264 c-18 -10 -45 -33 -60 -52 -39 -51 -38 -134 0 -184 73 -95
220 -81 268 25 24 53 25 81 1 133 -36 79 -135 116 -209 78z"/>
<path d="M972 2704 c-18 -10 -45 -33 -60 -52 -39 -51 -38 -134 0 -184 73 -95
220 -81 268 25 24 53 25 81 1 133 -36 79 -135 116 -209 78z"/>
<path d="M4012 2704 c-18 -10 -45 -33 -60 -52 -39 -51 -38 -134 0 -184 73 -95
220 -81 268 25 24 53 25 81 1 133 -36 79 -135 116 -209 78z"/>
<path d="M972 2144 c-18 -10 -45 -33 -60 -52 -39 -51 -38 -134 0 -184 73 -95
220 -81 268 25 24 53 25 81 1 133 -36 79 -135 116 -209 78z"/>
<path d="M4012 2144 c-18 -10 -45 -33 -60 -52 -39 -51 -38 -134 0 -184 73 -95
220 -81 268 25 24 53 25 81 1 133 -36 79 -135 116 -209 78z"/>
</g>
</svg>
