<?xml version="1.0" standalone="no"?>
<!DOCTYPE svg PUBLIC "-//W3C//DTD SVG 20010904//EN"
 "http://www.w3.org/TR/2001/REC-SVG-20010904/DTD/svg10.dtd">
<svg version="1.0" xmlns="http://www.w3.org/2000/svg"
 width="512.000000pt" height="512.000000pt" viewBox="0 0 512.000000 512.000000"
 preserveAspectRatio="xMidYMid meet">

<g transform="translate(0.000000,512.000000) scale(0.100000,-0.100000)"
fill="#000000" stroke="none">
<path d="M1700 3803 c-94 -16 -369 -91 -472 -128 -169 -63 -316 -141 -345
-184 -23 -33 -23 -40 -23 -295 0 -241 2 -263 20 -293 25 -41 59 -63 107 -70
30 -4 64 5 153 40 165 65 331 114 516 150 l161 32 -31 20 c-64 43 -67 56 -73
362 -6 267 -5 280 15 326 14 30 17 47 9 46 -7 -1 -23 -4 -37 -6z"/>
<path d="M1767 2778 c-27 -22 -36 -60 -22 -95 15 -36 13 -36 173 -64 124 -22
124 -22 150 -2 40 30 43 101 4 122 -18 9 -237 51 -270 51 -10 0 -26 -6 -35
-12z"/>
<path d="M3240 2780 c-19 -4 -68 -13 -109 -20 -88 -15 -114 -35 -109 -87 2
-25 11 -42 30 -56 26 -20 27 -20 150 2 67 12 131 24 141 27 28 9 47 61 35 96
-16 46 -55 57 -138 38z"/>
<path d="M1874 2589 c-33 -17 -44 -52 -44 -140 0 -72 3 -82 25 -104 31 -32 69
-32 100 0 23 22 25 32 25 113 0 71 -4 94 -17 110 -22 26 -61 35 -89 21z"/>
<path d="M3183 2590 c-34 -14 -43 -42 -43 -135 0 -78 2 -88 25 -110 31 -32 69
-32 100 0 22 22 25 32 25 104 0 90 -11 124 -47 140 -28 13 -30 13 -60 1z"/>
<path d="M2210 2430 c-56 -56 2 -200 100 -249 73 -37 161 -33 221 10 l28 20
28 -20 c106 -77 275 -25 327 101 37 87 10 158 -58 158 -39 0 -76 -37 -76 -75
0 -36 -31 -66 -68 -67 -42 -1 -69 24 -77 73 -8 44 -35 69 -75 69 -40 0 -67
-25 -75 -69 -8 -49 -35 -74 -77 -73 -37 1 -68 31 -68 67 0 12 -9 34 -21 49
-26 33 -79 36 -109 6z"/>
<path d="M1417 952 c-66 -91 -161 -287 -192 -397 -35 -122 -55 -252 -55 -359
0 -106 18 -143 84 -175 39 -20 60 -21 304 -21 l261 0 -24 36 c-13 20 -27 52
-31 72 -16 84 13 362 50 492 l14 45 -173 185 c-95 101 -176 185 -181 187 -5 1
-31 -28 -57 -65z"/>
</g>
</svg>
